<svg width="75" height="50" viewBox="0 0 75 50" fill="none" xmlns="http://www.w3.org/2000/svg">
<path d="M5.474 18.786C4.148 18.786 3.196 17.732 3.196 16.44C3.196 14.774 4.624 13.38 6.222 13.38C7.548 13.38 8.534 14.468 8.534 15.76C8.534 17.46 7.038 18.786 5.474 18.786ZM0.544 35.854L2.278 23.546C2.346 23.172 2.652 22.9 2.958 22.9H6.868C7.174 22.9 7.412 23.172 7.378 23.546L5.644 35.854C5.61 36.194 5.27 36.5 4.964 36.5H1.054C0.748 36.5 0.51 36.194 0.544 35.854ZM9.89002 35.854L11.59 23.546C11.658 23.172 11.93 22.9 12.27 22.9H13.868C14.072 22.9 14.242 23.07 14.344 23.274L14.718 24.668C15.602 23.682 17.302 22.56 19.138 22.56C20.838 22.56 21.824 23.308 22.776 24.668C23.592 23.716 25.326 22.56 27.332 22.56C31.004 22.56 32.738 25.824 32.194 29.7L31.344 35.854C31.276 36.194 31.004 36.5 30.664 36.5H26.958C26.618 36.5 26.414 36.194 26.482 35.854L27.366 29.428C27.57 28.068 27.23 27.014 25.938 27.014C24.918 27.014 24 27.796 23.796 29.19L22.844 35.854C22.776 36.194 22.504 36.5 22.164 36.5H18.798C18.458 36.5 18.254 36.194 18.322 35.854L19.206 29.428C19.41 28.068 19.104 27.014 17.812 27.014C16.792 27.014 15.874 27.864 15.67 29.258L14.752 35.854C14.684 36.194 14.378 36.5 14.072 36.5H10.366C10.026 36.5 9.82202 36.194 9.89002 35.854ZM40.2047 36.84C36.7367 36.84 35.2067 34.188 35.8187 29.7L36.7027 23.546C36.7367 23.172 37.0427 22.9 37.3487 22.9H41.1227C41.4287 22.9 41.6667 23.172 41.6327 23.546L40.7147 29.938C40.4767 31.604 40.8847 32.42 41.8707 32.42C42.9927 32.42 43.7407 31.4 43.9107 30.142L44.8627 23.546C44.9307 23.104 45.0667 22.9 45.7467 22.9H49.1807C49.4867 22.9 49.7247 23.172 49.6907 23.546L47.9567 35.854C47.9227 36.194 47.5827 36.5 47.2767 36.5H45.6447C45.3727 36.5 45.2367 36.296 45.1687 36.092L44.7947 34.766C44.1147 35.582 42.5507 36.84 40.2047 36.84ZM52.0859 36.5C51.7799 36.5 51.5079 36.194 51.5759 35.854L51.6439 35.514L55.8939 27.354V27.286H53.6499C53.3439 27.286 53.1399 26.98 53.1739 26.64L53.6159 23.546C53.6839 23.172 53.9559 22.9 54.2619 22.9H62.6939C63.1699 22.9 63.3399 23.342 63.1019 23.818L58.4779 32.08V32.148H60.7899C61.1299 32.148 61.2999 32.42 61.2659 32.794L60.8579 35.854C60.8239 36.194 60.5179 36.5 60.1779 36.5H52.0859Z" fill="white"/>
<path d="M69.526 30.714C70.852 30.714 71.804 31.768 71.804 33.06C71.804 34.726 70.376 36.12 68.778 36.12C67.452 36.12 66.466 35.032 66.466 33.74C66.466 32.04 67.962 30.714 69.526 30.714ZM74.456 13.646L72.722 25.954C72.654 26.328 72.348 26.6 72.042 26.6H68.132C67.826 26.6 67.588 26.328 67.622 25.954L69.356 13.646C69.39 13.306 69.73 13 70.036 13H73.946C74.252 13 74.49 13.306 74.456 13.646Z" fill="white"/>
</svg>
