<svg width="12" height="13" viewBox="0 0 12 13" fill="none" xmlns="http://www.w3.org/2000/svg">
<g clip-path="url(#clip0_151_335)">
<path d="M2.31429 0.139648L1.65536 1.20859C1.55357 1.37363 1.5 1.56406 1.5 1.75703V1.82812C1.5 2.38926 1.97946 2.84375 2.57143 2.84375C3.16339 2.84375 3.64286 2.38926 3.64286 1.82812V1.75703C3.64286 1.56406 3.58929 1.37617 3.4875 1.20859L2.82857 0.139648C2.775 0.0533203 2.67857 0 2.57143 0C2.46429 0 2.36786 0.0533203 2.31429 0.139648ZM5.74286 0.139648L5.08393 1.20859C4.98214 1.37363 4.92857 1.56406 4.92857 1.75703V1.82812C4.92857 2.38926 5.40804 2.84375 6 2.84375C6.59196 2.84375 7.07143 2.38926 7.07143 1.82812V1.75703C7.07143 1.56406 7.01786 1.37617 6.91607 1.20859L6.25714 0.139648C6.20357 0.0533203 6.10714 0 6 0C5.89286 0 5.79643 0.0533203 5.74286 0.139648ZM8.5125 1.20859C8.41071 1.37363 8.35714 1.56406 8.35714 1.75703V1.82812C8.35714 2.38926 8.83661 2.84375 9.42857 2.84375C10.0205 2.84375 10.5 2.38926 10.5 1.82812V1.75703C10.5 1.56406 10.4464 1.37617 10.3446 1.20859L9.68572 0.139648C9.63214 0.0533203 9.53572 0 9.42857 0C9.32143 0 9.225 0.0533203 9.17143 0.139648L8.5125 1.20859ZM3.42857 4.46875C3.42857 4.01934 3.04554 3.65625 2.57143 3.65625C2.09732 3.65625 1.71429 4.01934 1.71429 4.46875V5.6875C0.76875 5.6875 0 6.41621 0 7.3125V9.11523C0.222321 9.24727 0.484821 9.34375 0.771429 9.34375C1.13304 9.34375 1.5 9.18887 1.8 9.00352C1.94464 8.91465 2.06518 8.82324 2.14821 8.75723C2.18839 8.72422 2.22054 8.69629 2.24196 8.67852C2.25268 8.66836 2.26071 8.66328 2.26339 8.6582L2.26607 8.65566C2.34911 8.57441 2.46429 8.53125 2.58482 8.53379C2.70536 8.53633 2.81518 8.58711 2.89554 8.6709L2.89821 8.67344C2.90089 8.67598 2.90893 8.68359 2.91696 8.69121C2.93571 8.70898 2.9625 8.73437 3 8.76738C3.075 8.8334 3.18214 8.92227 3.31607 9.00859C3.58929 9.18887 3.93214 9.34121 4.28839 9.34121C4.64464 9.34121 4.9875 9.18887 5.26071 9.00859C5.39464 8.91973 5.50179 8.8334 5.57679 8.76738C5.61429 8.73437 5.64107 8.70898 5.65982 8.69121C5.66786 8.68359 5.67589 8.67598 5.67857 8.67344L5.68125 8.6709C5.76161 8.58203 5.87946 8.53379 6.00268 8.53379C6.12589 8.53379 6.24375 8.58457 6.32411 8.6709L6.32679 8.67344C6.32946 8.67598 6.3375 8.68359 6.34554 8.69121C6.36429 8.70898 6.39107 8.73437 6.42857 8.76738C6.50357 8.8334 6.61071 8.92227 6.74464 9.00859C7.01786 9.18887 7.36072 9.34121 7.71697 9.34121C8.07322 9.34121 8.41607 9.18887 8.68929 9.00859C8.82321 8.91973 8.93036 8.8334 9.00536 8.76738C9.04286 8.73437 9.06964 8.70898 9.08839 8.69121C9.09643 8.68359 9.10447 8.67598 9.10714 8.67344L9.10982 8.6709C9.1875 8.58457 9.3 8.53633 9.42054 8.53379C9.54107 8.53125 9.65357 8.57441 9.73929 8.65566L9.74197 8.6582C9.74732 8.66328 9.75268 8.66836 9.76339 8.67852C9.78482 8.69629 9.81429 8.72422 9.85714 8.75723C9.94018 8.82324 10.058 8.91465 10.2054 9.00352C10.5054 9.18887 10.8723 9.34375 11.2339 9.34375C11.5205 9.34375 11.783 9.24473 12.0054 9.11523V7.3125C12.0054 6.41621 11.2366 5.6875 10.2911 5.6875V4.46875C10.2911 4.01934 9.90804 3.65625 9.43393 3.65625C8.95982 3.65625 8.57679 4.01934 8.57679 4.46875V5.6875H6.8625V4.46875C6.8625 4.01934 6.47946 3.65625 6.00536 3.65625C5.53125 3.65625 5.14821 4.01934 5.14821 4.46875V5.6875H3.43393V4.46875H3.42857ZM12 10.0191C11.7723 10.1029 11.5125 10.1562 11.2286 10.1562C10.6259 10.1562 10.0929 9.90488 9.73393 9.68398C9.62411 9.61543 9.525 9.54688 9.44197 9.48594C9.36697 9.54688 9.27857 9.61289 9.17947 9.67637C8.83393 9.90234 8.31964 10.1562 7.71429 10.1562C7.10893 10.1562 6.59464 9.90234 6.25179 9.67637C6.15804 9.61543 6.07232 9.55195 6 9.49355C5.92768 9.55195 5.84196 9.61289 5.74821 9.67637C5.40536 9.90234 4.89107 10.1562 4.28571 10.1562C3.68036 10.1562 3.16607 9.90234 2.82321 9.67637C2.72411 9.61035 2.63571 9.54434 2.56071 9.48594C2.47768 9.54688 2.37857 9.61543 2.26875 9.68398C1.90714 9.90488 1.37411 10.1562 0.771429 10.1562C0.4875 10.1562 0.227679 10.1004 0 10.0191V12.1875C0 12.6369 0.383036 13 0.857143 13H11.1429C11.617 13 12 12.6369 12 12.1875V10.0191Z" fill="white"/>
</g>
<defs>
<clipPath id="clip0_151_335">
<rect width="12" height="13" fill="white"/>
</clipPath>
</defs>
</svg>
