<svg width="16" height="17" viewBox="0 0 16 17" fill="none" xmlns="http://www.w3.org/2000/svg">
<g clip-path="url(#clip0_15_65)">
<path d="M5.35161 12.9188C5.35161 12.9813 5.27742 13.0313 5.18387 13.0313C5.07742 13.0406 5.00323 12.9906 5.00323 12.9188C5.00323 12.8563 5.07742 12.8063 5.17097 12.8063C5.26774 12.7969 5.35161 12.8469 5.35161 12.9188ZM4.34839 12.7781C4.32581 12.8406 4.39032 12.9125 4.4871 12.9313C4.57097 12.9625 4.66774 12.9313 4.6871 12.8688C4.70645 12.8063 4.64516 12.7344 4.54839 12.7063C4.46452 12.6844 4.37097 12.7156 4.34839 12.7781ZM5.77419 12.725C5.68064 12.7469 5.61613 12.8063 5.62581 12.8781C5.63548 12.9406 5.71935 12.9813 5.81613 12.9594C5.90968 12.9375 5.97419 12.8781 5.96452 12.8156C5.95484 12.7563 5.86774 12.7156 5.77419 12.725ZM7.89677 0.75C3.42258 0.75 0 4.04063 0 8.375C0 11.8406 2.25161 14.8063 5.46774 15.85C5.88064 15.9219 6.02581 15.675 6.02581 15.4719C6.02581 15.2781 6.01613 14.2094 6.01613 13.5531C6.01613 13.5531 3.75806 14.0219 3.28387 12.6219C3.28387 12.6219 2.91613 11.7125 2.3871 11.4781C2.3871 11.4781 1.64839 10.9875 2.43871 10.9969C2.43871 10.9969 3.24194 11.0594 3.68387 11.8031C4.39032 13.0094 5.57419 12.6625 6.03548 12.4563C6.10968 11.9563 6.31936 11.6094 6.55161 11.4031C4.74839 11.2094 2.92903 10.9563 2.92903 7.95C2.92903 7.09063 3.17419 6.65938 3.69032 6.10938C3.60645 5.90625 3.33226 5.06875 3.77419 3.9875C4.44839 3.78438 6 4.83125 6 4.83125C6.64516 4.65625 7.33871 4.56563 8.02581 4.56563C8.7129 4.56563 9.40645 4.65625 10.0516 4.83125C10.0516 4.83125 11.6032 3.78125 12.2774 3.9875C12.7194 5.07188 12.4452 5.90625 12.3613 6.10938C12.8774 6.6625 13.1935 7.09375 13.1935 7.95C13.1935 10.9656 11.2935 11.2063 9.49032 11.4031C9.7871 11.65 10.0387 12.1188 10.0387 12.8531C10.0387 13.9063 10.029 15.2094 10.029 15.4656C10.029 15.6688 10.1774 15.9156 10.5871 15.8438C13.8129 14.8063 16 11.8406 16 8.375C16 4.04063 12.371 0.75 7.89677 0.75ZM3.13548 11.5281C3.09355 11.5594 3.10323 11.6313 3.15806 11.6906C3.20968 11.7406 3.28387 11.7625 3.32581 11.7219C3.36774 11.6906 3.35806 11.6188 3.30323 11.5594C3.25161 11.5094 3.17742 11.4875 3.13548 11.5281ZM2.7871 11.275C2.76452 11.3156 2.79677 11.3656 2.86129 11.3969C2.9129 11.4281 2.97742 11.4188 3 11.375C3.02258 11.3344 2.99032 11.2844 2.92581 11.2531C2.86129 11.2344 2.80968 11.2438 2.7871 11.275ZM3.83226 12.3875C3.78065 12.4281 3.8 12.5219 3.87419 12.5813C3.94839 12.6531 4.04194 12.6625 4.08387 12.6125C4.12581 12.5719 4.10645 12.4781 4.04194 12.4188C3.97097 12.3469 3.87419 12.3375 3.83226 12.3875ZM3.46452 11.9281C3.4129 11.9594 3.4129 12.0406 3.46452 12.1125C3.51613 12.1844 3.60323 12.2156 3.64516 12.1844C3.69677 12.1438 3.69677 12.0625 3.64516 11.9906C3.6 11.9188 3.51613 11.8875 3.46452 11.9281Z" fill="white"/>
</g>
<defs>
<clipPath id="clip0_15_65">
<rect width="16" height="16" fill="white" transform="translate(0 0.5)"/>
</clipPath>
</defs>
</svg>
