<svg width="9" height="13" viewBox="0 0 9 13" fill="none" xmlns="http://www.w3.org/2000/svg">
<g clip-path="url(#clip0_153_366)">
<path d="M5.05547 12.675C6.25781 11.0449 9 7.09414 9 4.875C9 2.18359 6.98438 0 4.5 0C2.01562 0 0 2.18359 0 4.875C0 7.09414 2.74219 11.0449 3.94453 12.675C4.23281 13.0635 4.76719 13.0635 5.05547 12.675ZM4.5 3.25C4.89782 3.25 5.27936 3.4212 5.56066 3.72595C5.84196 4.0307 6 4.44402 6 4.875C6 5.30598 5.84196 5.7193 5.56066 6.02405C5.27936 6.3288 4.89782 6.5 4.5 6.5C4.10218 6.5 3.72064 6.3288 3.43934 6.02405C3.15804 5.7193 3 5.30598 3 4.875C3 4.44402 3.15804 4.0307 3.43934 3.72595C3.72064 3.4212 4.10218 3.25 4.5 3.25Z" fill="white"/>
</g>
<defs>
<clipPath id="clip0_153_366">
<rect width="9" height="13" fill="white"/>
</clipPath>
</defs>
</svg>
